<?xml version="1.0" encoding="utf-8"?>
<!-- Generator: Adobe Illustrator 26.0.3, SVG Export Plug-In . SVG Version: 6.00 Build 0)  -->
<svg version="1.1" id="Camada_1" xmlns="http://www.w3.org/2000/svg" xmlns:xlink="http://www.w3.org/1999/xlink" x="0px" y="0px"
	 viewBox="0 0 1318.7 208" style="enable-background:new 0 0 1318.7 208;" xml:space="preserve">
<style type="text/css">
	.st0{fill:#1E1E1C;}
	.st1{fill:#0C6567;}
	.st2{fill:#020203;}
	.st3{fill:#FFFFFF;}
</style>
<g>
	<g id="Layer_1-2">
		<path class="st0" d="M1318.7,38.7c0.2,7.2-5.5,13.2-12.7,13.4s-13.2-5.5-13.4-12.7c-0.2-7.2,5.5-13.2,12.7-13.4c0.1,0,0.3,0,0.4,0
			c7.1-0.1,12.9,5.5,13,12.5C1318.7,38.6,1318.7,38.7,1318.7,38.7z M1295.8,38.7c-0.2,5.4,4.1,10,9.6,10.2c0.1,0,0.2,0,0.4,0
			c5.4,0,9.7-4.4,9.7-9.8c0-0.1,0-0.2,0-0.3c0-5.7-4.1-10.2-9.8-10.2c-5.5,0-9.9,4.5-9.8,9.9C1295.8,38.5,1295.8,38.6,1295.8,38.7z
			 M1303.6,45.4h-3V32.7c1.6-0.3,3.2-0.4,4.9-0.4c1.5-0.1,3.1,0.2,4.4,0.9c0.8,0.7,1.3,1.7,1.2,2.8c-0.1,1.5-1.2,2.7-2.6,3v0.2
			c1.3,0.5,2.2,1.7,2.3,3.1c0.1,1.1,0.4,2.2,0.9,3.2h-3.2c-0.5-1-0.8-2-1-3.1c-0.2-1.4-1-2-2.6-2h-1.4L1303.6,45.4z M1303.7,38.2
			h1.4c1.6,0,3-0.5,3-1.9c0-1.2-0.8-1.9-2.7-1.9c-0.5,0-1.1,0-1.6,0.2L1303.7,38.2z"/>
		<path class="st1" d="M146.8,6.9c0,0-45.1-5.2-60.7-5.3l0,0c-15.6,0-60.7,5.3-60.7,5.3S28,36.3,0,38.5C0,134.7,17.9,181,86.1,208
			h0.1c68.2-26.9,86.1-73.2,86.1-169.5C144.2,36.3,146.8,6.9,146.8,6.9z M137.7,94.5v17.8h-28.3l18.8,18.8l1.2,1.2l-1.2,1.2
			l-11.4,11.4l-1.2,1.2l-1.2-1.2l-18.8-18.8v28.3H76.1v-28.3l-18.8,18.8l-1.2,1.2l-1.2-1.2l-11.4-11.4l-1.2-1.2l1.2-1.2l18.8-18.8
			H34.1V92.8h28.3L43.5,74l-1.2-1.2l1.2-1.2l11.4-11.3l1.2-1.2l1.2,1.2L76.1,79V50.7h19.5V79l18.8-18.8l1.2-1.2l1.2,1.2l11.4,11.4
			l1.2,1.2l-1.2,1.2l-18.8,18.8h28.3L137.7,94.5L137.7,94.5z"/>
		<path class="st2" d="M676.9,130.8v-23.7c-4,0.3-7.9,0.8-11.8,1.7c-3.5,0.7-6.9,1.9-10.1,3.6c-2.7,1.4-5.1,3.4-7.1,5.7
			c-1.8,2.2-2.8,4.9-2.7,7.7c0,8.3,4.7,12.5,13.9,12.5C665.8,138.3,671.7,135.8,676.9,130.8 M715.2,136.8l-2.3,21.2h-9.4
			c-11.2,0-19-4-23.3-12c-7.2,8-17.8,12-31.8,12c-4.1,0-8.1-0.7-12-2.2c-3.6-1.4-6.8-3.5-9.6-6.2c-2.8-2.8-4.9-6.1-6.3-9.8
			c-1.6-4.1-2.4-8.6-2.3-13c0-7.1,2.1-13,6.2-17.7c4.2-4.8,9.4-8.6,15.2-11.3c6-2.9,12.4-4.9,19-6.1c5.9-1.2,12-1.9,18-2.1
			c-0.3-6.2-1.8-10.6-4.6-13.2s-7.5-3.8-14.1-3.8c-8.2,0-17.7,2.6-28.5,7.9l-2.3-21c12.9-6.1,25.5-9.2,37.8-9.2
			c25.1,0,37.6,13.9,37.6,41.8v28.1c0,3.7,0.1,6.7,0.3,8.9c0.1,1.8,0.5,3.5,1.2,5.1c0.5,1.1,1.6,1.9,2.8,2.2
			c1.6,0.3,3.2,0.4,4.8,0.4H715.2z M602.9,156h-25.8v-56c0-9.7-1.6-16.9-4.9-21.5s-8.5-7-15.7-7c-7.5-0.1-14.7,3.2-19.5,9V156h-25.8
			V0H537v57.4c7.2-4.7,14.4-7.1,21.6-7.1c29.5,0,44.3,16.6,44.3,49.7L602.9,156z M488.3,156h-25.8v-56c0-9.7-1.6-16.9-4.9-21.5
			s-8.5-7-15.7-7c-7.5-0.2-14.7,3.1-19.5,8.9V156h-25.8V52h24.1l0.4,6.2c7.3-5.3,15-7.9,22.9-7.9c29.5,0,44.3,16.6,44.3,49.7V156z
			 M310.5,92.1h42.2c0.1-5.2-1.5-10.2-4.6-14.3c-3-4.2-7.8-6.2-14.2-6.2s-11.5,1.9-15.5,5.6C314.4,81.2,311.6,86.5,310.5,92.1
			 M377.3,109.6h-67.4c1.4,9,5.1,15.8,11,20.4c5.7,4.5,12.9,6.9,20.2,6.8c2.6,0,5.2-0.2,7.7-0.6c2.8-0.4,5.6-1,8.4-1.8
			c2.9-0.8,5.7-1.7,8.5-2.7c2.6-0.9,5.1-2.1,7.5-3.4l1.2,21.8c-10.1,5.2-21.7,7.9-34.7,7.9c-8.3,0.2-16.5-1.2-24.2-4.2
			c-6.6-2.5-12.6-6.4-17.7-11.3c-4.8-4.8-8.5-10.6-10.8-17.1c-2.5-6.8-3.7-14.1-3.6-21.3c0-7.1,1.1-14.2,3.4-21
			c2.2-6.3,5.5-12.1,9.9-17.2c4.3-4.9,9.7-8.9,15.7-11.5c12.5-5.2,26.4-5.5,39.1-0.9c5.4,2,10.4,5.1,14.5,9.2
			c4.1,4,7.4,8.9,9.6,14.2c2.4,5.9,3.5,12.2,3.4,18.5C378.8,100.2,378.3,104.9,377.3,109.6 M231.1,158c-15.8,0-27.5-2.6-35.2-7.7
			l2.3-22c2,1.4,4.1,2.7,6.3,3.8c2.6,1.3,5.3,2.4,8.1,3.3c2.9,1,5.9,1.8,8.8,2.4c2.9,0.6,5.8,0.9,8.7,0.9c5.8,0,9.9-1.1,12.3-3.3
			c2.3-2.1,3.6-5,3.5-8.1c0-3.1-0.8-5.4-2.5-7c-2.1-1.8-4.5-3.3-7.2-4.2c-3.1-1.2-6.9-2.4-11.3-3.7c-5.2-1.6-10.2-3.7-15-6.1
			c-3.8-2-7-5-9.4-8.6c-2.1-3.4-3.3-8.1-3.7-14.2c0-4.2,0.7-8.4,2.1-12.4c1.5-3.9,3.8-7.5,6.8-10.5c3.4-3.2,7.4-5.8,11.8-7.4
			c5.6-2,11.4-2.9,17.3-2.8c6.3,0,12.7,0.8,18.8,2.3c6.2,1.5,10.8,3.3,13.8,5.4l-2.3,22c-1.7-1.5-3.6-2.9-5.5-4.2
			c-2.2-1.4-4.6-2.6-7-3.6c-2.6-1.1-5.2-1.9-7.9-2.5s-5.4-0.9-8.1-0.9c-5,0-9.1,0.9-12.4,2.8c-3.2,1.7-5.1,5.1-4.9,8.6
			c0,3.3,1.1,5.8,3.2,7.5c2.6,1.9,5.6,3.5,8.6,4.6l3.5,1c0.8,0.3,2.2,0.7,4.1,1.1c1.9,0.5,3.3,0.9,4.3,1.2c4.1,1.2,8,2.6,11.8,4.4
			c3.3,1.6,6.4,3.7,9,6.2c2.5,2.5,4.5,5.6,5.7,8.9c1.4,3.9,2.1,8.1,2,12.3C271.8,147.8,258.2,158,231.1,158"/>
		<path class="st1" d="M1262.2,130.8v-23.7c-4,0.3-7.9,0.8-11.8,1.7c-3.5,0.7-6.9,1.9-10.1,3.6c-2.7,1.4-5.1,3.4-7.1,5.7
			c-1.8,2.2-2.7,4.9-2.7,7.7c0,8.3,4.7,12.5,13.9,12.5C1251,138.3,1256.9,135.8,1262.2,130.8 M1300.4,136.8l-2.3,21.2h-9.4
			c-11.2,0-19-4-23.3-12.1c-7.2,8-17.8,12.1-31.8,12.1c-4.1,0.1-8.2-0.7-12-2.2c-3.6-1.4-6.8-3.5-9.6-6.2c-2.8-2.8-4.9-6.1-6.3-9.8
			c-1.6-4.1-2.4-8.6-2.3-13c0-7.1,2.1-13,6.2-17.7c4.2-4.8,9.4-8.6,15.2-11.3c6-2.9,12.4-4.9,19-6.1c5.9-1.2,12-1.9,18-2.1
			c-0.3-6.2-1.8-10.6-4.6-13.2c-2.8-2.6-7.5-3.8-14.1-3.8c-8.2,0-17.7,2.6-28.5,7.9l-2.3-21c12.9-6.1,25.5-9.2,37.8-9.2
			c25.1,0,37.6,13.9,37.6,41.8v28.1c0,3.7,0.1,6.7,0.3,8.9c0.1,1.8,0.5,3.5,1.2,5.1c0.6,1.1,1.6,1.9,2.8,2.2
			c1.6,0.3,3.2,0.4,4.8,0.4H1300.4z M1200.6,50.3l-5,24.3h-9.6c-4,0-7.9,1-11.4,2.9c-3.2,1.7-5.8,4.3-7.5,7.5v71h-25.8V52h24.1
			l0.6,11c8-8.5,17.3-12.7,27.7-12.7H1200.6z M1117.2,156h-24.1l-0.4-6.2c-7.2,5.5-14.9,8.3-23.1,8.3c-29.4,0-44.1-16.7-44.1-50.1
			V52h25.8v55.9c0,9.7,1.6,16.9,4.9,21.5c3.3,4.6,8.5,7,15.7,7c8,0,14.6-2.9,19.6-8.7V52h25.8L1117.2,156z M963.5,162.2
			c-3.8-0.4-7.9-1-12.5-1.9c-9.6,3.2-14.3,8-14.3,14.4c0,4.6,2.3,8.2,7,10.9s11.2,4.1,19.4,4.1c8.3,0,15.1-1.2,20.3-3.7
			s7.8-6,7.8-10.4s-2.6-7.6-7.8-9.4C977,164.1,970.3,162.7,963.5,162.2 M959.6,69.2c-6.2,0-11,2-14.2,5.9s-4.9,9.3-4.9,16.1
			c0,6.8,1.6,12.2,4.9,16.1s8,5.9,14.2,5.9s11-2,14.2-5.9s4.8-9.3,4.8-16.1c0-6.8-1.6-12.2-4.8-16.1
			C970.5,71.2,965.8,69.2,959.6,69.2 M964.4,208c-7.2,0.1-14.3-0.7-21.2-2.5c-5.5-1.4-10.7-3.6-15.4-6.6c-3.9-2.5-7.1-5.9-9.4-9.9
			c-2-3.6-3.1-7.7-3.1-11.9c0-9.6,5.7-17.3,17-23.3c-6.2-3.9-9.3-8.9-9.3-15s3.5-10.8,10.4-14.1c-10.7-7.8-16-18.9-16-33.5
			c0-5.5,0.9-11,2.9-16.2c1.9-4.9,4.7-9.3,8.4-13c3.8-3.7,8.3-6.7,13.3-8.6c5.6-2.2,11.6-3.2,17.6-3.1c9.3,0,17.2,2.1,23.7,6.2
			c5.5-3,13-4.6,22.2-4.6h6.7l-1.7,16.2h-12.6c-0.9,0-1.7,0.1-2.6,0.2c4.2,6.5,6.2,14.1,6.2,22.9c0,5.5-0.9,10.9-2.8,16
			c-3.6,10-11.4,17.9-21.3,21.7c-7.4,2.8-15.4,3.8-23.3,2.9c-1.8-0.2-3.7-0.4-5.6-0.7c-1.4,0.5-2.3,1.9-2.3,3.3
			c0,2.5,1.9,4.2,5.7,5.2c6.7,1.5,13.5,2.6,20.3,3.3c4.6,0.6,9.3,1.4,14,2.4c4.6,1,9,2.7,13.1,5c4,2.3,7.4,5.4,10,9.1
			c2.7,3.8,4.3,8.8,4.7,14.9c0,10.4-4.3,18.6-12.9,24.5C992.6,204.9,980.3,207.9,964.4,208 M836.3,92.1h42.2
			c0.1-5.2-1.5-10.2-4.6-14.3c-3-4.2-7.8-6.2-14.2-6.2s-11.5,1.9-15.5,5.6C840.1,81.2,837.3,86.5,836.3,92.1 M903,109.6h-67.4
			c1.4,9,5,15.8,11,20.4c5.7,4.5,12.8,6.9,20.1,6.9c2.6,0,5.2-0.2,7.7-0.6c2.8-0.4,5.7-1,8.4-1.8c2.9-0.8,5.7-1.7,8.5-2.7
			c2.6-0.9,5.1-2.1,7.5-3.4l1.2,21.8c-10.2,5.2-21.7,7.9-34.8,7.9c-8.3,0.2-16.5-1.2-24.2-4.2c-6.6-2.5-12.6-6.4-17.7-11.3
			c-4.8-4.8-8.5-10.6-10.8-17.1c-2.5-6.8-3.7-14-3.7-21.3c0-7.1,1.1-14.2,3.4-21c2.2-6.3,5.5-12.2,9.9-17.2
			c4.3-4.9,9.7-8.9,15.7-11.5c12.5-5.2,26.4-5.5,39.1-0.9c5.4,2,10.4,5.1,14.6,9.1c4.1,4,7.4,8.9,9.6,14.2
			c2.3,5.9,3.5,12.2,3.4,18.5C904.5,100.2,904,104.9,903,109.6 M756.8,158c-15.8,0-27.5-2.6-35.2-7.7l2.3-22c2,1.4,4.1,2.7,6.3,3.8
			c2.6,1.3,5.3,2.4,8.1,3.3c2.9,1,5.8,1.8,8.8,2.4c2.9,0.6,5.8,0.9,8.7,0.9c5.8,0,9.9-1.1,12.3-3.3c2.3-2.1,3.6-5,3.5-8.1
			c0-3.1-0.8-5.4-2.5-7c-2.1-1.8-4.5-3.3-7.2-4.2c-3.1-1.2-6.9-2.4-11.3-3.7c-5.2-1.6-10.2-3.7-15-6.1c-3.8-2-7-5-9.4-8.6
			c-2.1-3.4-3.3-8.1-3.7-14.2c0-4.2,0.8-8.4,2.2-12.4c1.5-3.9,3.8-7.5,6.8-10.5c3.4-3.2,7.4-5.8,11.8-7.4c5.6-2,11.5-3,17.4-2.8
			c6.3,0,12.7,0.8,18.8,2.3c6.2,1.5,10.8,3.3,13.8,5.4l-2.3,22c-1.7-1.5-3.6-2.9-5.5-4.2c-2.2-1.4-4.6-2.6-7-3.6
			c-2.6-1.1-5.2-1.9-7.9-2.5s-5.4-0.9-8.1-0.9c-5,0-9.1,0.9-12.4,2.8c-3.2,1.7-5,5.1-4.9,8.6c0,3.3,1.1,5.8,3.2,7.5
			c2.7,1.9,5.5,3.5,8.6,4.6l3.5,1c0.8,0.3,2.2,0.7,4,1.1c1.9,0.5,3.3,0.9,4.3,1.2c4,1.2,8,2.6,11.8,4.4c3.3,1.6,6.4,3.7,9,6.2
			c2.5,2.5,4.5,5.6,5.7,8.9c1.4,3.9,2.1,8.1,2,12.3C797.6,147.8,784,158,756.8,158"/>
	</g>
</g>
<polygon class="st3" points="137.7,94.5 137.7,112.3 109.4,112.3 128.2,131.1 129.4,132.3 128.2,133.5 116.8,144.9 115.6,146.1 
	114.4,144.9 95.6,126.1 95.6,154.4 76.1,154.4 76.1,126.1 57.3,144.9 56.1,146.1 54.9,144.9 43.5,133.5 42.3,132.3 43.5,131.1 
	62.3,112.3 34.1,112.3 34.1,92.8 62.4,92.8 43.5,74 42.3,72.8 43.5,71.6 54.9,60.3 56.1,59.1 57.3,60.3 76.1,79 76.1,50.7 
	95.6,50.7 95.6,79 114.4,60.2 115.6,59 116.8,60.2 128.2,71.6 129.4,72.8 128.2,74 109.4,92.8 137.7,92.8 137.7,94.5 "/>
</svg>
