<?xml version="1.0" encoding="utf-8"?>
<!-- Generator: Adobe Illustrator 26.0.3, SVG Export Plug-In . SVG Version: 6.00 Build 0)  -->
<svg version="1.1" id="Camada_1" xmlns="http://www.w3.org/2000/svg" xmlns:xlink="http://www.w3.org/1999/xlink" x="0px" y="0px"
	 viewBox="0 0 403 65" style="enable-background:new 0 0 403 65;" xml:space="preserve">
<path d="M402.5,12.6c0,1.1-0.4,2.1-1.1,2.8c-0.7,0.8-1.7,1.2-2.8,1.2c-1.1,0-2.1-0.4-2.8-1.1c-0.8-0.7-1.2-1.7-1.2-2.8
	c0-1.1,0.4-2.1,1.1-2.8c0.7-0.8,1.7-1.2,2.8-1.2h0.1c1,0,2,0.4,2.8,1.1C402.1,10.5,402.5,11.5,402.5,12.6L402.5,12.6z M395.5,12.6
	c0,0.4,0.1,0.8,0.2,1.2c0.1,0.4,0.4,0.7,0.6,1c0.3,0.3,0.6,0.5,1,0.7c0.4,0.2,0.7,0.3,1.1,0.3h0.1c0.4,0,0.8-0.1,1.1-0.2
	c0.4-0.2,0.7-0.4,1-0.6c0.3-0.3,0.5-0.6,0.6-1c0.1-0.4,0.2-0.7,0.2-1.1c0,0,0-0.1,0-0.1c0-1.7-1.3-3.1-3-3.1c-0.4,0-0.8,0.1-1.2,0.2
	c-0.4,0.2-0.7,0.4-1,0.7c-0.3,0.3-0.5,0.6-0.6,1C395.6,11.7,395.5,12.1,395.5,12.6L395.5,12.6z M397.9,14.6H397v-3.9
	c0.5-0.1,1-0.1,1.5-0.1c0.5,0,0.9,0.1,1.3,0.3c0.1,0.1,0.2,0.2,0.3,0.4c0.1,0.1,0.1,0.3,0.1,0.5c0,0.2-0.1,0.4-0.2,0.6
	c-0.1,0.2-0.3,0.3-0.6,0.3v0c0.2,0.1,0.4,0.2,0.5,0.4c0.1,0.2,0.2,0.4,0.2,0.6c0,0.3,0.1,0.7,0.3,1h-1c-0.1-0.3-0.3-0.6-0.3-0.9
	c-0.1-0.4-0.3-0.6-0.8-0.6h-0.4L397.9,14.6z M398,12.4h0.4c0.5,0,0.9-0.2,0.9-0.6c0-0.4-0.3-0.6-0.8-0.6c-0.2,0-0.3,0-0.5,0
	L398,12.4z"/>
<path d="M44.8,2.9c0,0-13.8-1.6-18.5-1.6c-4.8,0-18.5,1.6-18.5,1.6s0.8,9-7.8,9.6c0,29.3,5.5,43.4,26.3,51.7h0
	C47.1,56,52.6,41.8,52.6,12.5C44,11.8,44.8,2.9,44.8,2.9z M42,29.6V35h-8.6l5.7,5.7l0.4,0.4l-0.4,0.4l-3.5,3.5l-0.4,0.4l-0.4-0.4
	l-5.7-5.7v8.6h-6v-8.6l-5.7,5.7l-0.4,0.4l-0.4-0.4l-3.5-3.5l-0.4-0.4l0.4-0.4L19,35h-8.6v-6H19l-5.7-5.7l-0.4-0.4l0.4-0.4l3.5-3.5
	l0.4-0.4l0.4,0.4l5.7,5.7v-8.6h6v8.6l5.7-5.7l0.4-0.4l0.4,0.4l3.5,3.5l0.4,0.4l-0.4,0.4L33.4,29H42V29.6z"/>
<path d="M206.6,40.6v-7.2c-1.2,0.1-2.4,0.2-3.6,0.5c-1.1,0.2-2.1,0.6-3.1,1.1c-0.8,0.4-1.6,1-2.2,1.7c-0.5,0.7-0.8,1.5-0.8,2.3
	c0,2.5,1.4,3.8,4.3,3.8C203.2,42.9,205,42.2,206.6,40.6L206.6,40.6z M218.3,42.5l-0.7,6.5h-2.9c-3.4,0-5.8-1.2-7.1-3.7
	c-2.2,2.4-5.4,3.7-9.7,3.7c-1.2,0-2.5-0.2-3.6-0.7c-1.1-0.4-2.1-1.1-2.9-1.9c-0.8-0.8-1.5-1.9-1.9-3c-0.5-1.3-0.7-2.6-0.7-4
	c0-2.2,0.6-4,1.9-5.4c1.3-1.4,2.9-2.6,4.6-3.4c1.8-0.9,3.8-1.5,5.8-1.9c1.8-0.4,3.6-0.6,5.5-0.6c-0.1-1.9-0.6-3.2-1.4-4
	c-0.8-0.8-2.3-1.2-4.3-1.2c-2.5,0-5.4,0.8-8.7,2.4l-0.7-6.4c3.9-1.9,7.8-2.8,11.6-2.8c7.7,0,11.5,4.2,11.5,12.7v8.6
	c0,1.1,0,2,0.1,2.7c0,0.5,0.2,1.1,0.4,1.6c0.1,0.2,0.2,0.3,0.4,0.4c0.1,0.1,0.3,0.2,0.5,0.2c0.5,0.1,1,0.1,1.5,0.1L218.3,42.5z
	 M184,48.3h-7.9V31.2c0-3-0.5-5.1-1.5-6.6s-2.6-2.1-4.8-2.1c-1.1,0-2.3,0.2-3.3,0.7c-1,0.5-1.9,1.2-2.7,2.1v23H156V0.8h7.9v17.5
	c2.2-1.4,4.4-2.2,6.6-2.2c9,0,13.5,5,13.5,15.1L184,48.3z M149.1,48.3h-7.9V31.2c0-3-0.5-5.1-1.5-6.6s-2.6-2.1-4.8-2.1
	c-1.1,0-2.3,0.2-3.3,0.7c-1,0.5-1.9,1.2-2.7,2v23h-7.9V16.6h7.4l0.1,1.9c2.2-1.6,4.6-2.4,7-2.4c9,0,13.5,5,13.5,15.1V48.3z
	 M94.8,28.8h12.9c0-1.6-0.5-3.1-1.4-4.4c-0.9-1.3-2.4-1.9-4.3-1.9c-2,0-3.5,0.6-4.7,1.7C96,25.5,95.1,27.1,94.8,28.8L94.8,28.8z
	 M115.2,34.2H94.6c0.4,2.7,1.5,4.8,3.3,6.2c1.8,1.4,3.9,2.1,6.2,2.1c0.8,0,1.6-0.1,2.4-0.2c0.9-0.1,1.7-0.3,2.6-0.5
	c0.9-0.2,1.7-0.5,2.6-0.8c0.8-0.3,1.6-0.6,2.3-1l0.4,6.7c-3.1,1.6-6.6,2.4-10.6,2.4c-2.5,0-5-0.4-7.4-1.3c-2-0.8-3.9-1.9-5.4-3.5
	c-1.5-1.5-2.6-3.2-3.3-5.2c-0.8-2.1-1.1-4.3-1.1-6.5c0-2.2,0.3-4.3,1-6.4c0.7-1.9,1.7-3.7,3-5.2c1.3-1.5,3-2.7,4.8-3.5
	c3.8-1.6,8.1-1.7,11.9-0.3c1.7,0.6,3.2,1.6,4.4,2.8c1.3,1.2,2.3,2.7,2.9,4.3c0.7,1.8,1.1,3.7,1,5.6
	C115.6,31.3,115.5,32.7,115.2,34.2L115.2,34.2z M70.5,48.9c-4.8,0-8.4-0.8-10.7-2.3l0.7-6.7c0.6,0.4,1.3,0.8,1.9,1.1
	c0.8,0.4,1.6,0.7,2.5,1c0.9,0.3,1.8,0.5,2.7,0.7c0.9,0.2,1.8,0.3,2.7,0.3c1.8,0,3-0.3,3.7-1c0.3-0.3,0.6-0.7,0.8-1.1
	s0.3-0.9,0.3-1.4c0-0.9-0.3-1.6-0.8-2.1c-0.6-0.6-1.4-1-2.2-1.3c-1-0.4-2.1-0.7-3.5-1.1c-1.6-0.5-3.1-1.1-4.6-1.9
	c-1.2-0.6-2.1-1.5-2.9-2.6c-0.6-1-1-2.5-1.1-4.3c0-1.3,0.2-2.6,0.7-3.8c0.4-1.2,1.2-2.3,2.1-3.2c1-1,2.2-1.8,3.6-2.2
	c1.7-0.6,3.5-0.9,5.3-0.9c1.9,0,3.9,0.2,5.7,0.7c1.9,0.5,3.3,1,4.2,1.6L81,25.2c-0.5-0.5-1.1-0.9-1.7-1.3c-0.7-0.4-1.4-0.8-2.1-1.1
	c-0.8-0.3-1.6-0.6-2.4-0.8c-0.8-0.2-1.6-0.3-2.5-0.3c-1.5,0-2.8,0.3-3.8,0.9c-0.5,0.3-0.9,0.6-1.1,1.1c-0.3,0.5-0.4,1-0.4,1.5
	c0,1,0.3,1.8,1,2.3c0.8,0.6,1.7,1.1,2.6,1.4l1.1,0.3c0.3,0.1,0.7,0.2,1.2,0.3c0.6,0.1,1,0.3,1.3,0.4c1.2,0.4,2.4,0.8,3.6,1.3
	c1,0.5,1.9,1.1,2.7,1.9c0.8,0.8,1.4,1.7,1.7,2.7c0.4,1.2,0.6,2.5,0.6,3.7C83,45.8,78.8,48.9,70.5,48.9"/>
<path d="M385.3,40.6v-7.2c-1.2,0.1-2.4,0.2-3.6,0.5c-1.1,0.2-2.1,0.6-3.1,1.1c-0.8,0.4-1.6,1-2.2,1.7c-0.5,0.7-0.8,1.5-0.8,2.3
	c0,2.5,1.4,3.8,4.3,3.8C381.9,42.9,383.7,42.2,385.3,40.6L385.3,40.6z M397,42.5l-0.7,6.5h-2.9c-3.4,0-5.8-1.2-7.1-3.7
	c-2.2,2.5-5.4,3.7-9.7,3.7c-1.3,0-2.5-0.2-3.7-0.7c-1.1-0.4-2.1-1.1-2.9-1.9c-0.8-0.8-1.5-1.9-1.9-3c-0.5-1.3-0.7-2.6-0.7-4
	c0-2.2,0.6-4,1.9-5.4c1.3-1.5,2.9-2.6,4.6-3.5c1.8-0.9,3.8-1.5,5.8-1.9c1.8-0.4,3.6-0.6,5.5-0.6c-0.1-1.9-0.6-3.2-1.4-4
	c-0.8-0.8-2.3-1.2-4.3-1.2c-2.5,0-5.4,0.8-8.7,2.4l-0.7-6.4c3.9-1.9,7.8-2.8,11.6-2.8c7.7,0,11.5,4.2,11.5,12.7v8.6
	c0,1.1,0,2,0.1,2.7c0,0.5,0.2,1.1,0.4,1.6c0.1,0.2,0.2,0.3,0.4,0.4c0.1,0.1,0.3,0.2,0.5,0.2c0.5,0.1,1,0.1,1.5,0.1L397,42.5z
	 M366.5,16.1l-1.5,7.4H362c-1.2,0-2.4,0.3-3.5,0.9c-1,0.5-1.8,1.3-2.3,2.3v21.6h-7.9V16.6h7.4l0.2,3.4c2.5-2.6,5.3-3.9,8.4-3.9
	L366.5,16.1z M341,48.3h-7.4l-0.1-1.9c-2.2,1.7-4.6,2.5-7,2.5c-9,0-13.5-5.1-13.5-15.3V16.6h7.9v17.1c0,3,0.5,5.1,1.5,6.6
	s2.6,2.1,4.8,2.1c2.5,0,4.4-0.9,6-2.7V16.6h7.9V48.3z M294.1,50.2c-1.1-0.1-2.4-0.3-3.8-0.6c-2.9,1-4.4,2.4-4.4,4.4
	c0,1.4,0.7,2.5,2.1,3.3c1.4,0.8,3.4,1.2,5.9,1.2c2.5,0,4.6-0.4,6.2-1.1c1.6-0.8,2.4-1.8,2.4-3.2c0-1.4-0.8-2.3-2.4-2.9
	C298.2,50.8,296.2,50.3,294.1,50.2L294.1,50.2z M292.9,21.8c-1.9,0-3.4,0.6-4.3,1.8c-1,1.2-1.5,2.8-1.5,4.9c0,2.1,0.5,3.7,1.5,4.9
	s2.4,1.8,4.3,1.8c1.9,0,3.3-0.6,4.3-1.8c1-1.2,1.5-2.8,1.5-4.9c0-2.1-0.5-3.7-1.5-4.9C296.3,22.4,294.8,21.8,292.9,21.8z
	 M294.4,64.1c-2.2,0-4.4-0.2-6.5-0.8c-1.7-0.4-3.3-1.1-4.7-2c-1.2-0.8-2.2-1.8-2.9-3c-0.6-1.1-1-2.3-1-3.6c0-2.9,1.7-5.3,5.2-7.1
	c-1.9-1.2-2.8-2.7-2.8-4.6c0-1.9,1.1-3.3,3.2-4.3c-3.3-2.4-4.9-5.8-4.9-10.2c0-1.7,0.3-3.4,0.9-4.9c0.6-1.5,1.4-2.8,2.6-4
	c1.2-1.1,2.5-2,4.1-2.6c1.7-0.7,3.5-1,5.4-0.9c2.8,0,5.2,0.6,7.2,1.9c1.7-0.9,4-1.4,6.8-1.4h2l-0.5,4.9h-3.8c-0.3,0-0.5,0-0.8,0.1
	c1.3,2,1.9,4.3,1.9,7c0,1.7-0.3,3.3-0.9,4.9c-0.5,1.5-1.4,2.9-2.5,4c-1.1,1.1-2.5,2-4,2.6c-2.3,0.9-4.7,1.2-7.1,0.9
	c-0.5-0.1-1.1-0.1-1.7-0.2c-0.2,0.1-0.4,0.2-0.5,0.4s-0.2,0.4-0.2,0.6c0,0.8,0.6,1.3,1.7,1.6c2,0.4,4.1,0.8,6.2,1
	c1.4,0.2,2.8,0.4,4.3,0.7c1.4,0.3,2.8,0.8,4,1.5c1.2,0.7,2.2,1.6,3.1,2.8c0.8,1.2,1.3,2.7,1.4,4.5c0,3.2-1.3,5.7-3.9,7.5
	C303,63.2,299.2,64.1,294.4,64.1L294.4,64.1z M255.3,28.8h12.9c0-1.6-0.5-3.1-1.4-4.4c-0.9-1.3-2.4-1.9-4.3-1.9
	c-2,0-3.5,0.6-4.7,1.7C256.4,25.5,255.6,27.1,255.3,28.8L255.3,28.8z M275.6,34.2h-20.6c0.4,2.7,1.5,4.8,3.4,6.2
	c1.8,1.4,3.9,2.1,6.1,2.1c0.8,0,1.6-0.1,2.4-0.2c0.9-0.1,1.7-0.3,2.6-0.5c0.9-0.2,1.7-0.5,2.6-0.8c0.8-0.3,1.6-0.6,2.3-1l0.4,6.7
	c-3.1,1.6-6.6,2.4-10.6,2.4c-2.5,0-5-0.4-7.4-1.3c-2-0.8-3.9-1.9-5.4-3.5c-1.5-1.5-2.6-3.2-3.3-5.2c-0.8-2.1-1.1-4.3-1.1-6.5
	c0-2.2,0.3-4.3,1-6.4c0.7-1.9,1.7-3.7,3-5.2c1.3-1.5,3-2.7,4.8-3.5c3.8-1.6,8.1-1.7,11.9-0.3c1.7,0.6,3.2,1.6,4.4,2.8
	c1.3,1.2,2.3,2.7,2.9,4.3c0.7,1.8,1.1,3.7,1,5.6C276.1,31.3,275.9,32.7,275.6,34.2z M231,48.9c-4.8,0-8.4-0.8-10.7-2.3l0.7-6.7
	c0.6,0.4,1.3,0.8,1.9,1.1c0.8,0.4,1.6,0.7,2.5,1c0.9,0.3,1.8,0.5,2.7,0.7c0.9,0.2,1.8,0.3,2.7,0.3c1.8,0,3-0.3,3.7-1
	c0.3-0.3,0.6-0.7,0.8-1.1c0.2-0.4,0.3-0.9,0.3-1.4c0-0.9-0.3-1.6-0.8-2.1c-0.6-0.6-1.4-1-2.2-1.3c-1-0.4-2.1-0.7-3.5-1.1
	c-1.6-0.5-3.1-1.1-4.6-1.9c-1.2-0.6-2.1-1.5-2.9-2.6c-0.6-1-1-2.5-1.1-4.3c0-1.3,0.2-2.6,0.7-3.8c0.4-1.2,1.2-2.3,2.1-3.2
	c1-1,2.2-1.8,3.6-2.2c1.7-0.6,3.5-0.9,5.3-0.9c1.9,0,3.9,0.2,5.7,0.7c1.9,0.5,3.3,1,4.2,1.6l-0.7,6.7c-0.5-0.5-1.1-0.9-1.7-1.3
	c-0.7-0.4-1.4-0.8-2.1-1.1c-0.8-0.3-1.6-0.6-2.4-0.8c-0.8-0.2-1.6-0.3-2.5-0.3c-1.5,0-2.8,0.3-3.8,0.9c-0.5,0.3-0.9,0.6-1.1,1.1
	c-0.3,0.5-0.4,1-0.4,1.5c0,1,0.3,1.8,1,2.3c0.8,0.6,1.7,1.1,2.6,1.4l1.1,0.3c0.3,0.1,0.7,0.2,1.2,0.3c0.6,0.1,1,0.3,1.3,0.4
	c1.2,0.4,2.4,0.8,3.6,1.4c1,0.5,1.9,1.1,2.7,1.9c0.8,0.8,1.4,1.7,1.7,2.7c0.4,1.2,0.6,2.5,0.6,3.7C243.4,45.8,239.3,48.9,231,48.9"
	/>
</svg>
