<svg width="403" height="65" viewBox="0 0 403 65" fill="none" xmlns="http://www.w3.org/2000/svg">
<path d="M402.521 12.561C402.548 13.6166 402.154 14.6397 401.426 15.4056C400.698 16.1714 399.695 16.6173 398.638 16.6452C397.581 16.6715 396.557 16.2779 395.791 15.551C395.025 14.8241 394.579 13.8233 394.551 12.7682C394.523 11.7129 394.916 10.6898 395.643 9.92381C396.371 9.15787 397.374 8.71188 398.43 8.68395H398.553C399.586 8.66601 400.585 9.05847 401.329 9.77512C402.073 10.4918 402.501 11.474 402.521 12.5061V12.561ZM395.543 12.561C395.531 12.9553 395.596 13.3481 395.736 13.717C395.876 14.086 396.087 14.4237 396.358 14.7111C396.629 14.9984 396.954 15.2296 397.314 15.3915C397.674 15.5534 398.063 15.6428 398.458 15.6547H398.571C398.961 15.6531 399.348 15.5747 399.708 15.424C400.068 15.2734 400.395 15.0533 400.67 14.7765C400.945 14.4997 401.162 14.1716 401.31 13.8108C401.458 13.45 401.533 13.0636 401.532 12.6737C401.532 12.6433 401.532 12.6128 401.532 12.5823C401.532 10.8572 400.277 9.46423 398.549 9.46423C398.153 9.46583 397.762 9.54531 397.396 9.69812C397.031 9.85094 396.699 10.0741 396.421 10.3549C396.142 10.6356 395.921 10.9685 395.771 11.3345C395.621 11.7005 395.544 12.0924 395.546 12.4878L395.543 12.561ZM397.933 14.5909H397.017V10.717C397.51 10.6316 398.01 10.5918 398.51 10.5981C398.977 10.5612 399.446 10.6596 399.859 10.8815C399.981 10.9865 400.078 11.1173 400.143 11.2644C400.208 11.4115 400.239 11.5712 400.234 11.7319C400.218 11.9489 400.13 12.1544 399.985 12.3168C399.84 12.4793 399.646 12.5897 399.432 12.6311V12.6768C399.625 12.7551 399.793 12.8844 399.917 13.0509C400.042 13.2174 400.119 13.4147 400.14 13.6217C400.177 13.9593 400.274 14.2875 400.427 14.5909H399.456C399.306 14.2935 399.203 13.9748 399.151 13.646C399.081 13.2224 398.846 13.0365 398.345 13.0365H397.921L397.933 14.5909ZM397.957 12.3933H398.382C398.879 12.3933 399.297 12.2287 399.297 11.8264C399.297 11.4728 399.038 11.2351 398.467 11.2351C398.301 11.2315 398.135 11.2479 397.973 11.2839L397.957 12.3933Z" fill="white"/>
<path d="M44.8108 2.85928C44.8108 2.85928 31.0501 1.25909 26.2943 1.25604C21.5385 1.25604 7.77779 2.85928 7.77779 2.85928C7.77779 2.85928 8.56228 11.8386 0 12.4848C0 41.8214 5.46399 55.9305 26.2821 64.16H26.3004C47.1154 55.9549 52.5825 41.8367 52.5825 12.5C44.0202 11.8386 44.8108 2.85928 44.8108 2.85928ZM42.0452 29.5717V35.0001H33.4188L39.1484 40.7211L39.5178 41.0899L39.1484 41.4618L35.6716 44.9304L35.3022 45.3022L34.9298 44.9304L29.2033 39.2093V47.8259H23.2387V39.2093L17.5092 44.9304L17.1398 45.3022L16.7674 44.9304L13.2937 41.4618L12.9213 41.0899L13.2937 40.7211L19.0232 35.0001H10.3968V29.0474H19.0232L13.2937 23.3172L12.9213 22.9454L13.2937 22.5766L16.7674 19.1171L17.1398 18.7453L17.5092 19.1171L23.2387 24.8412V16.2216H29.2033V24.8412L34.9298 19.1202L35.3022 18.7453L35.6716 19.1171L39.1484 22.5857L39.5178 22.9545L39.1484 23.3172L33.4188 29.0474H42.0452V29.5717Z" fill="white"/>
<path d="M206.63 40.6298V33.4061C205.423 33.4862 204.224 33.6553 203.043 33.912C201.969 34.1321 200.933 34.5058 199.966 35.0215C199.14 35.4565 198.406 36.0487 197.808 36.7649C197.262 37.4231 196.968 38.2542 196.981 39.1088C196.981 41.6447 198.399 42.9127 201.236 42.9127C203.222 42.9127 205.02 42.1517 206.63 40.6298V40.6298ZM218.311 42.4585L217.612 48.9202H214.755C211.326 48.9202 208.957 47.7011 207.646 45.2627C205.444 47.7011 202.206 48.9202 197.933 48.9202C196.686 48.9325 195.448 48.707 194.285 48.2558C193.191 47.8297 192.196 47.1822 191.364 46.3538C190.521 45.5043 189.862 44.4906 189.429 43.376C188.943 42.1123 188.706 40.767 188.73 39.4136C188.73 37.2597 189.365 35.4635 190.634 34.0248C191.929 32.576 193.506 31.4053 195.268 30.5837C197.111 29.7089 199.061 29.0807 201.068 28.7153C202.88 28.3612 204.717 28.1492 206.562 28.0813C206.477 26.1793 206.011 24.8372 205.164 24.0549C204.318 23.2726 202.881 22.8814 200.854 22.8814C198.357 22.8814 195.458 23.6851 192.158 25.2924L191.459 18.8917C195.396 17.0283 199.248 16.0987 203.012 16.1028C210.67 16.1028 214.5 20.3486 214.502 28.8402V37.3989C214.502 38.5389 214.534 39.4472 214.597 40.1238C214.623 40.6605 214.753 41.1872 214.978 41.6752C215.061 41.8439 215.182 41.9915 215.33 42.1071C215.479 42.2227 215.652 42.3033 215.836 42.3427C216.317 42.4346 216.806 42.4764 217.295 42.4677L218.311 42.4585ZM184.032 48.3106H176.163V31.242C176.163 28.2855 175.665 26.0991 174.67 24.6828C173.675 23.2665 172.077 22.5553 169.877 22.5492C168.741 22.5277 167.615 22.7634 166.583 23.2384C165.551 23.7135 164.64 24.4157 163.919 25.2924V48.3106H156.037V0.762329H163.919V18.2546C166.121 16.8201 168.322 16.1028 170.522 16.1028C179.535 16.1028 184.041 21.1512 184.041 31.2481L184.032 48.3106ZM149.056 48.3106H141.184V31.242C141.184 28.2855 140.687 26.0991 139.694 24.6828C138.701 23.2665 137.104 22.5553 134.902 22.5492C133.766 22.5244 132.639 22.7566 131.605 23.2285C130.572 23.7004 129.659 24.3997 128.934 25.2741V48.3106H121.062V16.6118H128.428L128.553 18.5137C130.791 16.9084 133.119 16.1058 135.537 16.1058C144.552 16.1058 149.058 21.1543 149.056 31.2512V48.3106ZM94.7829 28.8402H107.671C107.695 27.2676 107.2 25.7306 106.263 24.4664C105.332 23.2015 103.882 22.5675 101.926 22.5675C99.9691 22.5675 98.4032 23.1375 97.2066 24.2774C95.9602 25.526 95.1161 27.1181 94.7829 28.8494V28.8402ZM115.161 34.1742H94.5937C95.0231 36.9153 96.1372 38.9859 97.9362 40.3859C99.6894 41.7607 101.861 42.4953 104.09 42.4677C104.88 42.4612 105.669 42.398 106.45 42.2787C107.316 42.1479 108.174 41.9678 109.02 41.7392C109.899 41.5076 110.754 41.2302 111.599 40.9163C112.391 40.6263 113.16 40.2757 113.898 39.8678L114.276 46.5245C111.185 48.1217 107.65 48.9202 103.672 48.9202C101.148 48.9694 98.6383 48.5391 96.2756 47.6523C94.258 46.884 92.4208 45.7083 90.8788 44.1989C89.4115 42.7284 88.2852 40.9545 87.579 39.0021C86.8255 36.9201 86.4493 34.7207 86.4679 32.5069C86.4529 30.3297 86.8069 28.1655 87.5149 26.1062C88.1749 24.1867 89.1989 22.412 90.5308 20.8789C91.8533 19.3727 93.4887 18.1723 95.3232 17.3616C99.1264 15.7813 103.384 15.6801 107.258 17.0781C108.913 17.6967 110.425 18.6456 111.7 19.867C112.964 21.0961 113.959 22.5741 114.621 24.2073C115.34 26.0005 115.695 27.9179 115.668 29.8491C115.639 31.2986 115.469 32.742 115.161 34.1589V34.1742ZM70.5369 48.9202C65.7099 48.9202 62.1334 48.1389 59.8074 46.5764L60.5064 39.8708C61.1138 40.3121 61.7618 40.6949 62.4417 41.0138C63.2447 41.4036 64.0716 41.7426 64.9173 42.0288C65.8006 42.3278 66.7018 42.5711 67.6157 42.7572C68.4933 42.94 69.387 43.035 70.2836 43.0407C72.0601 43.0407 73.3076 42.7034 74.0259 42.0288C74.3715 41.717 74.6467 41.3353 74.833 40.9091C75.0193 40.4829 75.1126 40.0219 75.1065 39.5569C75.1065 38.6425 74.8531 37.914 74.3434 37.4233C73.7059 36.859 72.9617 36.4279 72.1547 36.1553C71.2024 35.7957 70.0495 35.4157 68.6963 35.0154C67.1194 34.5242 65.5876 33.8991 64.1175 33.147C62.9545 32.5298 61.9713 31.6226 61.2634 30.5136C60.6326 29.4833 60.2561 28.0386 60.134 26.1793C60.1283 24.8918 60.3505 23.6133 60.7903 22.4029C61.2372 21.1991 61.9413 20.107 62.8538 19.2025C63.881 18.212 65.1035 17.4459 66.4435 16.9531C68.1391 16.3458 69.9327 16.0575 71.7335 16.1028C73.6695 16.102 75.5985 16.3353 77.4783 16.7977C79.3627 17.263 80.7699 17.8127 81.6999 18.4466L81.0009 25.1522C80.4746 24.6859 79.9122 24.2619 79.319 23.8842C78.6415 23.451 77.9264 23.0797 77.1822 22.7748C76.402 22.4524 75.5951 22.1984 74.7707 22.0158C73.959 21.8277 73.1285 21.7316 72.2952 21.7293C70.7709 21.7293 69.5123 22.0148 68.5192 22.5858C68.0467 22.8383 67.6556 23.2195 67.3914 23.6851C67.1272 24.1508 67.0007 24.6817 67.0265 25.2162C67.0265 26.2312 67.3532 26.9901 68.0094 27.4991C68.8177 28.0846 69.7045 28.5536 70.6437 28.892L71.7243 29.1968C71.9787 29.2822 72.3908 29.398 72.9606 29.5443C73.5314 29.6936 73.9679 29.8095 74.264 29.8948C75.4994 30.2483 76.7048 30.6988 77.869 31.242C78.888 31.7139 79.8175 32.3584 80.6163 33.147C81.3859 33.9196 81.9812 34.8477 82.3623 35.8688C82.7915 37.0692 82.9983 38.3375 82.9728 39.6117C82.9728 45.8215 78.8255 48.9263 70.5308 48.9263" fill="white"/>
<path d="M385.272 40.6298V33.4061C384.064 33.4859 382.864 33.6551 381.682 33.912C380.608 34.1321 379.572 34.5058 378.605 35.0215C377.779 35.4565 377.046 36.0487 376.447 36.7649C375.903 37.4246 375.61 38.2546 375.62 39.1088C375.62 41.6447 377.038 42.9127 379.875 42.9127C381.863 42.9127 383.662 42.1517 385.272 40.6298V40.6298ZM396.951 42.4585L396.252 48.9202H393.394C389.966 48.9202 387.596 47.695 386.285 45.2444C384.085 47.695 380.848 48.9202 376.572 48.9202C375.32 48.9353 374.076 48.7097 372.909 48.2558C371.814 47.8297 370.82 47.1822 369.988 46.3538C369.145 45.5043 368.486 44.4906 368.053 43.376C367.567 42.1123 367.33 40.767 367.354 39.4136C367.354 37.2597 367.988 35.4635 369.258 34.0248C370.552 32.5716 372.129 31.3966 373.892 30.5715C375.735 29.6973 377.685 29.0691 379.692 28.7031C381.504 28.349 383.341 28.137 385.186 28.0691C385.101 26.1672 384.635 24.825 383.788 24.0427C382.942 23.2604 381.503 22.8693 379.472 22.8693C376.975 22.8693 374.076 23.6729 370.775 25.2802L370.076 18.8795C374.014 17.0161 377.865 16.0865 381.63 16.0906C389.288 16.0906 393.118 20.3364 393.12 28.828V37.3989C393.12 38.5389 393.151 39.4472 393.214 40.1238C393.241 40.6605 393.371 41.1872 393.596 41.6752C393.679 41.8439 393.8 41.9915 393.948 42.1071C394.097 42.2227 394.27 42.3033 394.454 42.3427C394.934 42.4344 395.423 42.4763 395.913 42.4677L396.951 42.4585ZM366.481 16.0936L364.954 23.5093H362.027C360.805 23.4966 359.602 23.8023 358.535 24.3963C357.557 24.9051 356.759 25.7008 356.249 26.6762V48.3167H348.376V16.6118H355.742L355.931 19.9645C358.385 17.386 361.2 16.0977 364.374 16.0997L366.481 16.0936ZM341.026 48.3106H333.663L333.535 46.4118C331.333 48.1003 328.985 48.9446 326.49 48.9446C317.519 48.9446 313.033 43.8535 313.031 33.6713V16.6026H320.904V33.653C320.904 36.6095 321.401 38.7959 322.396 40.2122C323.391 41.6285 324.989 42.3397 327.189 42.3458C329.643 42.3458 331.632 41.4578 333.156 39.6819V16.6118H341.026V48.3106ZM294.118 50.2004C292.973 50.0754 291.706 49.8956 290.308 49.6304C287.388 50.6037 285.928 52.0617 285.928 54.0043C285.928 55.4002 286.64 56.5097 288.065 57.3326C289.489 58.1556 291.467 58.562 293.999 58.5518C296.539 58.5518 298.602 58.1718 300.189 57.4119C301.777 56.6519 302.569 55.5953 302.567 54.242C302.567 52.8887 301.775 51.9377 300.189 51.3891C298.22 50.7584 296.187 50.3494 294.127 50.1699L294.118 50.2004ZM292.906 21.839C291.005 21.839 289.556 22.4405 288.559 23.6434C287.562 24.8464 287.065 26.4841 287.067 28.5568C287.067 30.6253 287.564 32.2631 288.559 33.4701C289.554 34.6771 291.003 35.2786 292.906 35.2745C294.811 35.2745 296.251 34.673 297.225 33.4701C298.2 32.2672 298.686 30.6294 298.684 28.5568C298.684 26.4862 298.198 24.8484 297.225 23.6434C296.253 22.4385 294.813 21.837 292.906 21.839ZM294.371 64.1449C292.189 64.1785 290.012 63.9222 287.897 63.3829C286.232 62.9642 284.646 62.2798 283.199 61.356C282.02 60.6043 281.04 59.5797 280.342 58.3689C279.717 57.2676 279.389 56.0231 279.39 54.7571C279.39 51.8392 281.124 49.4719 284.594 47.6553C282.695 46.4666 281.746 44.9426 281.746 43.0834C281.746 41.2241 282.803 39.7875 284.918 38.7736C281.662 36.4083 280.034 33.0068 280.034 28.569C280.017 26.8795 280.316 25.2018 280.916 23.6221C281.486 22.1357 282.362 20.7856 283.489 19.6597C284.649 18.5232 286.03 17.6353 287.546 17.0507C289.257 16.3962 291.077 16.0744 292.909 16.1028C295.744 16.1028 298.156 16.7357 300.147 18.0016C301.842 17.0751 304.106 16.6118 306.938 16.6118H308.971L308.465 21.5556H304.622C304.357 21.5524 304.092 21.5738 303.831 21.6196C305.099 23.6028 305.733 25.9264 305.733 28.5903C305.745 30.2544 305.455 31.9069 304.875 33.467C304.33 34.9716 303.468 36.3412 302.345 37.4826C301.222 38.624 299.867 39.5103 298.37 40.0811C296.105 40.9379 293.667 41.242 291.261 40.9681C290.711 40.9071 290.14 40.8309 289.545 40.7486C289.338 40.8242 289.159 40.9627 289.034 41.1447C288.909 41.3267 288.845 41.5431 288.849 41.7636C288.849 42.5226 289.429 43.0499 290.595 43.3455C292.639 43.7863 294.704 44.121 296.783 44.3483C298.178 44.5159 299.609 44.7598 301.056 45.0768C302.461 45.373 303.81 45.8872 305.055 46.6007C306.263 47.2981 307.305 48.2498 308.108 49.3896C308.936 50.554 309.412 52.0647 309.536 53.922C309.536 57.0918 308.225 59.5851 305.601 61.4017C302.978 63.2183 299.235 64.1327 294.371 64.1449V64.1449ZM255.269 28.8402H268.156C268.181 27.2676 267.686 25.7306 266.749 24.4664C265.833 23.2015 264.368 22.5675 262.412 22.5675C260.455 22.5675 258.889 23.1375 257.692 24.2774C256.446 25.526 255.602 27.1181 255.269 28.8494V28.8402ZM275.641 34.165H255.079C255.501 36.9123 256.62 38.9828 258.437 40.3768C260.188 41.7535 262.357 42.4913 264.585 42.4677C265.374 42.4612 266.161 42.398 266.941 42.2787C267.809 42.1479 268.668 41.9678 269.515 41.7392C270.391 41.5076 271.249 41.2302 272.094 40.9163C272.885 40.6268 273.653 40.2763 274.39 39.8678L274.771 46.5245C271.674 48.1217 268.136 48.9202 264.158 48.9202C261.634 48.9694 259.124 48.5391 256.761 47.6523C254.744 46.884 252.907 45.7084 251.365 44.1989C249.896 42.7294 248.769 40.9552 248.065 39.0022C247.311 36.9243 246.933 34.7291 246.948 32.5191C246.933 30.3419 247.287 28.1777 247.995 26.1184C248.655 24.1943 249.681 22.4153 251.017 20.8789C252.337 19.3763 253.969 18.1782 255.8 17.3677C259.602 15.7861 263.859 15.6849 267.732 17.0842C269.389 17.7009 270.901 18.65 272.177 19.8731C273.441 21.1022 274.436 22.5802 275.098 24.2134C275.816 26.0066 276.172 27.924 276.145 29.8552C276.115 31.3045 275.946 32.7477 275.641 34.165ZM231.023 48.9202C226.196 48.9202 222.619 48.1389 220.293 46.5764L220.992 39.8708C221.6 40.3121 222.248 40.6949 222.927 41.0138C223.73 41.4036 224.557 41.7426 225.403 42.0288C226.286 42.3278 227.188 42.5711 228.101 42.7573C228.978 42.9399 229.871 43.0348 230.766 43.0407C232.546 43.0407 233.791 42.7024 234.512 42.0288C234.857 41.7171 235.132 41.3354 235.319 40.9091C235.505 40.4829 235.598 40.0219 235.592 39.5569C235.592 38.6425 235.339 37.914 234.829 37.4233C234.192 36.859 233.447 36.4279 232.64 36.1553C231.688 35.7957 230.534 35.4157 229.179 35.0154C227.603 34.5215 226.071 33.8965 224.6 33.147C223.438 32.5278 222.454 31.621 221.743 30.5136C221.112 29.4813 220.732 28.0345 220.601 26.1733C220.602 24.8866 220.83 23.6101 221.276 22.4029C221.723 21.1992 222.427 20.107 223.339 19.2025C224.366 18.2121 225.587 17.446 226.926 16.9531C228.625 16.3436 230.423 16.0542 232.228 16.0997C234.164 16.0989 236.093 16.3323 237.973 16.7947C239.854 17.26 241.26 17.8096 242.192 18.4436L241.496 25.1491C240.968 24.6828 240.405 24.2589 239.811 23.8812C239.133 23.448 238.418 23.0767 237.674 22.7717C236.894 22.4493 236.087 22.1954 235.263 22.0128C234.45 21.8246 233.618 21.7285 232.784 21.7263C231.264 21.7263 230.005 22.0118 229.008 22.5827C228.537 22.8363 228.146 23.2178 227.883 23.6832C227.619 24.1487 227.493 24.679 227.518 25.2131C227.518 26.2281 227.845 26.9871 228.501 27.4961C229.31 28.0816 230.196 28.5505 231.136 28.889L232.216 29.1938C232.471 29.2791 232.878 29.395 233.437 29.5413C234.008 29.6906 234.441 29.8064 234.738 29.8918C235.972 30.2455 237.177 30.697 238.339 31.242C239.358 31.7139 240.288 32.3585 241.087 33.147C241.856 33.9202 242.451 34.848 242.833 35.8688C243.262 37.0692 243.469 38.3375 243.443 39.6117C243.443 45.8215 239.297 48.9263 231.004 48.9263" fill="white"/>
</svg>
